<svg width="559" height="149" viewBox="0 0 559 149" fill="none" xmlns="http://www.w3.org/2000/svg">
<path d="M59.36 22.24L30.56 104.32C29.6 107.307 27.4133 108.8 24 108.8H5.12C3.2 108.8 1.86667 108.427 1.12 107.68C0.373335 106.827 0.373335 105.387 1.12 103.36L40.48 3.19998C41.3333 1.06665 42.88 -1.33514e-05 45.12 -1.33514e-05H71.52C73.76 -1.33514e-05 75.36 1.06665 76.32 3.19998L115.68 103.36C116.533 105.387 116.533 106.827 115.68 107.68C114.933 108.427 113.6 108.8 111.68 108.8H91.36C89.6533 108.8 88.2133 108.533 87.04 108C85.9733 107.36 85.1733 106.187 84.64 104.48L55.84 22.24H59.36ZM24.48 83.04V60.32H91.84V83.04H24.48ZM125.295 105.6V3.19998C125.295 1.06665 126.415 -1.33514e-05 128.655 -1.33514e-05H149.135C151.375 -1.33514e-05 152.495 1.06665 152.495 3.19998V105.6C152.495 107.733 151.375 108.8 149.135 108.8H128.655C126.415 108.8 125.295 107.733 125.295 105.6ZM166.858 145.6V44.8C166.858 42.6667 167.978 41.6 170.218 41.6H190.698C192.938 41.6 194.058 42.6667 194.058 44.8V145.6C194.058 147.733 192.938 148.8 190.698 148.8H170.218C167.978 148.8 166.858 147.733 166.858 145.6ZM205.098 88C208.191 88 210.644 86.8267 212.458 84.48C214.271 82.1333 215.178 79.04 215.178 75.2C215.178 71.36 214.218 68.2667 212.298 65.92C210.378 63.5733 207.871 62.4 204.778 62.4C201.898 62.4 199.284 63.36 196.938 65.28C194.698 67.0933 192.404 69.76 190.058 73.28L189.578 52.96C192.031 49.2267 195.071 46.1333 198.698 43.68C202.324 41.2267 207.231 40 213.418 40C218.858 40 223.871 41.2267 228.458 43.68C233.151 46.0267 236.884 49.8133 239.658 55.04C242.538 60.16 243.978 66.88 243.978 75.2C243.978 86.5067 241.098 95.2 235.338 101.28C229.578 107.36 222.218 110.4 213.258 110.4C209.098 110.4 204.991 109.6 200.938 108C196.991 106.293 193.471 103.733 190.378 100.32L191.018 78.72C193.151 81.7067 195.338 84 197.578 85.6C199.924 87.2 202.431 88 205.098 88ZM254.983 105.44V44.96C254.983 42.72 256.103 41.6 258.343 41.6H278.823C281.063 41.6 282.183 42.72 282.183 44.96V105.44C282.183 107.68 281.063 108.8 278.823 108.8H258.343C256.103 108.8 254.983 107.68 254.983 105.44ZM268.423 33.92C264.156 33.92 260.583 32.4267 257.703 29.44C254.823 26.4533 253.383 22.8266 253.383 18.56C253.383 14.4 254.823 10.88 257.703 7.99998C260.583 5.01331 264.156 3.51998 268.423 3.51998C272.796 3.51998 276.423 5.01331 279.303 7.99998C282.289 10.88 283.783 14.4 283.783 18.56C283.783 22.8266 282.289 26.4533 279.303 29.44C276.423 32.4267 272.796 33.92 268.423 33.92ZM296.545 105.44V44.96C296.545 42.72 297.665 41.6 299.905 41.6H320.385C322.625 41.6 323.745 42.72 323.745 44.96V105.44C323.745 107.68 322.625 108.8 320.385 108.8H299.905C297.665 108.8 296.545 107.68 296.545 105.44ZM366.785 108.8H346.305C344.065 108.8 342.945 107.84 342.945 105.92V74.24C342.945 70.5067 342.145 67.8933 340.545 66.4C339.052 64.8 336.812 64 333.825 64C330.412 64 327.372 64.96 324.705 66.88C322.038 68.8 319.318 71.2533 316.545 74.24V56.48C318.998 51.68 322.572 47.7333 327.265 44.64C332.065 41.5467 337.665 40 344.065 40C351.638 40 357.878 42.1867 362.785 46.56C367.692 50.9333 370.145 57.6 370.145 66.56V105.6C370.145 107.733 369.025 108.8 366.785 108.8ZM431.736 68.16L426.936 73.92C426.936 68.8 426.03 65.2267 424.216 63.2C422.51 61.1733 420.216 60.16 417.336 60.16C414.456 60.16 412.163 61.3867 410.456 63.84C408.75 66.2933 407.896 69.5467 407.896 73.6C407.896 78.9333 409.336 82.9333 412.216 85.6C415.203 88.2667 419.15 89.6 424.056 89.6C429.07 89.6 433.336 89.0667 436.856 88C440.483 86.8267 443.363 85.9733 445.496 85.44C446.67 85.12 447.576 85.0667 448.216 85.28C448.963 85.4933 449.55 86.1867 449.976 87.36L454.296 100.8C454.51 101.547 454.563 102.293 454.456 103.04C454.456 103.68 453.87 104.267 452.696 104.8C449.07 106.507 444.59 107.84 439.256 108.8C433.923 109.867 428.003 110.4 421.496 110.4C408.27 110.4 398.03 107.36 390.776 101.28C383.523 95.2 379.896 86.5067 379.896 75.2C379.896 63.7867 383.363 55.0933 390.296 49.12C397.336 43.04 406.51 40 417.816 40C424.75 40 430.776 41.3333 435.896 44C441.016 46.6667 445.016 50.4 447.896 55.2C450.776 60 452.216 65.6533 452.216 72.16C452.216 73.0133 452.163 74.1333 452.056 75.52C452.056 76.8 451.95 77.92 451.736 78.88C451.416 80.16 450.243 80.8 448.216 80.8H405.016V68.16H431.736ZM494.899 105.6V3.19998C494.899 1.06665 496.019 -1.33514e-05 498.259 -1.33514e-05H520.339C522.579 -1.33514e-05 523.699 1.06665 523.699 3.19998V105.6C523.699 107.733 522.579 108.8 520.339 108.8H498.259C496.019 108.8 494.899 107.733 494.899 105.6ZM463.699 24C461.565 24 460.499 22.88 460.499 20.64V3.35998C460.499 1.11998 461.565 -1.33514e-05 463.699 -1.33514e-05H555.059C557.192 -1.33514e-05 558.259 1.11998 558.259 3.35998V20.64C558.259 22.88 557.192 24 555.059 24H463.699Z" fill="white"/>
</svg>
