<svg width="512" height="190" viewBox="0 0 512 190" fill="none" xmlns="http://www.w3.org/2000/svg">
<mask id="mask0_9_14" style="mask-type:alpha" maskUnits="userSpaceOnUse" x="14" y="36" width="162" height="118">
<path fill-rule="evenodd" clip-rule="evenodd" d="M14.25 153.074L79.0747 110.433L90.7997 129.517L119.309 97.5287L175.75 136.811L101.227 36.9263L14.25 153.074Z" fill="black"/>
</mask>
<g mask="url(#mask0_9_14)">
<rect x="1.59665" y="1.59665" width="188.403" height="188.403" fill="white"/>
</g>
<path d="M259.44 141C258.373 141 257.467 140.787 256.72 140.36C255.973 139.827 255.387 139.187 254.96 138.44L225.36 78.92L227.6 78.28V137.8C227.6 139.933 226.48 141 224.24 141H203.76C201.52 141 200.4 139.933 200.4 137.8V35.4C200.4 33.2667 201.52 32.2 203.76 32.2H228.56C231.227 32.2 232.933 33.0533 233.68 34.76L268.4 108.04H263.6L298.32 34.76C298.853 33.8 299.493 33.16 300.24 32.84C301.093 32.4133 302.16 32.2 303.44 32.2H325.04C327.28 32.2 328.4 33.2667 328.4 35.4V137.8C328.4 139.933 327.28 141 325.04 141H304.56C302.32 141 301.2 139.933 301.2 137.8V78.28L303.44 78.92L273.84 138.44C273.413 139.293 272.827 139.933 272.08 140.36C271.44 140.787 270.533 141 269.36 141H259.44ZM345.95 137.64V77.16C345.95 74.92 347.07 73.8 349.31 73.8H369.79C372.03 73.8 373.15 74.92 373.15 77.16V137.64C373.15 139.88 372.03 141 369.79 141H349.31C347.07 141 345.95 139.88 345.95 137.64ZM359.39 66.12C355.123 66.12 351.55 64.6267 348.67 61.64C345.79 58.6533 344.35 55.0267 344.35 50.76C344.35 46.6 345.79 43.08 348.67 40.2C351.55 37.2133 355.123 35.72 359.39 35.72C363.763 35.72 367.39 37.2133 370.27 40.2C373.257 43.08 374.75 46.6 374.75 50.76C374.75 55.0267 373.257 58.6533 370.27 61.64C367.39 64.6267 363.763 66.12 359.39 66.12ZM387.513 137.8V35.4C387.513 33.2667 388.633 32.2 390.872 32.2H411.353C413.593 32.2 414.713 33.2667 414.713 35.4V137.8C414.713 139.933 413.593 141 411.353 141H390.872C388.633 141 387.513 139.933 387.513 137.8ZM477.235 100.36L472.435 106.12C472.435 101 471.528 97.4267 469.715 95.4C468.008 93.3733 465.715 92.36 462.835 92.36C459.955 92.36 457.662 93.5867 455.955 96.04C454.248 98.4933 453.395 101.747 453.395 105.8C453.395 111.133 454.835 115.133 457.715 117.8C460.702 120.467 464.648 121.8 469.555 121.8C474.568 121.8 478.835 121.267 482.355 120.2C485.982 119.027 488.862 118.173 490.995 117.64C492.168 117.32 493.075 117.267 493.715 117.48C494.462 117.693 495.048 118.387 495.475 119.56L499.795 133C500.008 133.747 500.062 134.493 499.955 135.24C499.955 135.88 499.368 136.467 498.195 137C494.568 138.707 490.088 140.04 484.755 141C479.422 142.067 473.502 142.6 466.995 142.6C453.768 142.6 443.528 139.56 436.275 133.48C429.022 127.4 425.395 118.707 425.395 107.4C425.395 95.9867 428.862 87.2933 435.795 81.32C442.835 75.24 452.008 72.2 463.315 72.2C470.248 72.2 476.275 73.5333 481.395 76.2C486.515 78.8667 490.515 82.6 493.395 87.4C496.275 92.2 497.715 97.8533 497.715 104.36C497.715 105.213 497.662 106.333 497.555 107.72C497.555 109 497.448 110.12 497.235 111.08C496.915 112.36 495.742 113 493.715 113H450.515V100.36H477.235Z" fill="white"/>
</svg>
