<svg version="1.1" id="Layer_1" xmlns:x="ns_extend;" xmlns:i="ns_ai;" xmlns:graph="ns_graphs;" xmlns="http://www.w3.org/2000/svg" xmlns:xlink="http://www.w3.org/1999/xlink" x="0px" y="0px" viewBox="0 0 767.8 65" style="enable-background:new 0 0 767.8 65;" xml:space="preserve">
 <style type="text/css">
  .st0{fill-rule:evenodd;clip-rule:evenodd;}
 </style>
 <metadata>
  <sfw xmlns="ns_sfw;">
   <slices>
   </slices>
   <sliceSourceBounds bottomLeftOrigin="true" height="65" width="767.8" x="-461.1" y="-208.8">
   </sliceSourceBounds>
  </sfw>
 </metadata>
 <path class="st0" d="M716.4,4.8L691,13v23.5l25.3-8.2c2-0.6,4.1-0.6,6.1,0.1l9.3,3.2c2,0.7,4.1,0.7,6.1,0.1l29.9-8.2V0l-29.9,8.2
	c-2,0.6-4.1,0.6-6.1-0.1l-9.3-3.2C720.5,4.3,718.4,4.2,716.4,4.8z M716.4,33.3L691,41.5V65l25.3-8.2c2-0.6,4.1-0.6,6.1,0.1l9.3,3.2
	c2,0.7,4.1,0.7,6.1,0.1l29.9-8.2V28.5l-29.9,8.2c-2,0.6-4.1,0.6-6.1-0.1l-9.3-3.2C720.5,32.8,718.4,32.7,716.4,33.3z M624.7,57.9
	c4.2,2.5,9.2,3.7,14.8,3.7c4.8,0,9.1-0.9,12.8-2.8c3.6-1.8,6.7-4.5,8.9-7.8c2.2-3.4,3.5-7.2,3.9-11.5h-13.8c-0.3,2-1,3.8-2.1,5.5
	c-1,1.5-2.5,2.7-4.1,3.5c-1.7,0.8-3.6,1.2-5.7,1.2c-2.9,0-5.3-0.7-7.4-2.1c-2.1-1.4-3.6-3.4-4.7-6c-1.1-2.6-1.6-5.6-1.6-9.1
	c0-3.2,0.5-6.1,1.6-8.7c1.1-2.6,2.7-4.7,4.8-6.2c2.1-1.5,4.5-2.3,7.3-2.3c2.1,0,4,0.4,5.6,1.2c1.6,0.8,3,2,4,3.4
	c1.1,1.6,1.8,3.4,2.2,5.3h13.8c-0.6-4.4-2.1-8.2-4.4-11.5c-2.3-3.3-5.3-5.9-8.9-7.6c-3.6-1.8-7.8-2.7-12.4-2.7
	c-5.6,0-10.5,1.2-14.7,3.7c-4.2,2.5-7.5,6.1-9.7,10.4c-2.3,4.4-3.4,9.4-3.4,15c0,5.6,1.1,10.6,3.4,15
	C617.1,51.9,620.5,55.5,624.7,57.9L624.7,57.9z M51,4.5v56.3h13.9V39.6h4.4l11.3,21.1H96L83.3,38.2c2.2-0.7,4.2-1.9,5.8-3.5
	c1.6-1.6,2.8-3.5,3.6-5.6c0.8-2.2,1.2-4.5,1.2-7.1c0-3.6-0.8-6.7-2.3-9.3c-1.5-2.7-3.7-4.7-6.6-6.1C82.3,5.2,78.9,4.5,75,4.5L51,4.5
	L51,4.5z M78,27.6c-1.5,1.1-3.3,1.7-5.5,1.7h-7.6V15.3h7.5c1.4,0,2.7,0.2,3.9,0.7c1.2,0.4,2.1,1.2,2.8,2.2c0.8,1,1.1,2.4,1.1,4.1
	C80.2,24.7,79.4,26.5,78,27.6L78,27.6z M218.1,4.5v56.3h37.5V49.2h-23.8V37.3h20.4V27.1h-20.4V16h23.8V4.5L218.1,4.5L218.1,4.5z
	 M99.6,60.7L119,4.5h17.1l19.4,56.3h-14.9l-3.3-11h-19.6l-3.3,11L99.6,60.7L99.6,60.7z M120.7,39.5h13.7L129.9,25
	c-0.8-2.7-1.5-5.3-2.2-8h-0.3c-0.7,2.7-1.5,5.3-2.3,8L120.7,39.5z M162,4.5v56.3h19.8c6.1,0,11.3-1.2,15.6-3.6
	c4.3-2.4,7.6-5.7,9.8-9.9c2.2-4.2,3.3-9.1,3.3-14.6c0-5.5-1.1-10.4-3.3-14.7c-2.2-4.3-5.5-7.6-9.8-9.9c-4.3-2.4-9.5-3.6-15.6-3.6
	C181.8,4.5,162,4.5,162,4.5z M189.6,47.5c-2.2,1.4-4.9,2.1-8,2.1h-6.2v-34h6.1c3.1,0,5.7,0.7,8,2.1c2.3,1.4,4,3.4,5.2,6
	c1.2,2.6,1.8,5.6,1.8,9c0,3.4-0.6,6.4-1.8,8.9C193.7,44.1,191.9,46.1,189.6,47.5L189.6,47.5z M285.2,60.7V4.5h24
	c4,0,7.4,0.7,10.2,2.2c2.9,1.4,5.1,3.5,6.6,6.1c1.5,2.6,2.3,5.7,2.3,9.3c0,2.5-0.4,4.9-1.2,7.1c-0.8,2.1-2,4-3.6,5.6
	c-1.7,1.6-3.6,2.8-5.8,3.5l12.6,22.5h-15.4l-11.3-21.1h-4.4v21.1L285.2,60.7L285.2,60.7z M306.8,29.4c2.2,0,4-0.6,5.5-1.7
	c1.5-1.2,2.2-2.9,2.2-5.3c0-1.7-0.4-3.1-1.1-4.1c-0.7-1-1.7-1.8-2.8-2.2c-1.2-0.5-2.6-0.7-3.9-0.7h-7.5v14.1
	C299.1,29.4,306.8,29.4,306.8,29.4z M338.5,4.5v56.2H376V49.2h-23.8V37.3h20.4V27.1h-20.4V16H376V4.5C376,4.5,338.5,4.5,338.5,4.5z
	 M385.7,60.7V4.5h23c4.4,0,8.1,0.7,11.2,2.2c3.1,1.5,5.4,3.5,7,6.2c1.6,2.7,2.4,5.9,2.4,9.5c0,3.6-0.8,6.8-2.4,9.6
	c-1.6,2.7-3.9,4.9-7,6.4c-3.1,1.5-6.8,2.2-11.2,2.2h-9.2v20.1L385.7,60.7L385.7,60.7z M407.4,29.9c1.7,0,3.2-0.3,4.4-0.8
	c1.2-0.6,2.2-1.4,2.9-2.5c0.7-1.1,1.1-2.5,1.1-4.1c0-1.7-0.3-3-1-4.1c-0.7-1.1-1.7-1.9-2.9-2.4c-1.2-0.5-2.7-0.8-4.4-0.8h-7.9v14.7
	L407.4,29.9L407.4,29.9z M446.1,59c3.5,1.8,7.8,2.7,12.8,2.7c5.1,0,9.4-0.9,12.8-2.7c3.5-1.8,6-4.3,7.8-7.5
	c1.7-3.3,2.6-7.1,2.6-11.5V4.5h-13.9V39c0,3.7-0.8,6.5-2.3,8.3c-1.5,1.8-3.9,2.7-7,2.7c-3.2,0-5.6-0.9-7.1-2.7
	c-1.5-1.8-2.3-4.6-2.3-8.3V4.5h-13.9v35.4c0,4.4,0.9,8.3,2.6,11.5C440,54.7,442.6,57.2,446.1,59z M492.5,60.7V4.5H518
	c3.3,0,6.2,0.6,8.6,1.9c2.5,1.2,4.4,3,5.7,5.1c1.3,2.2,2,4.7,2,7.3c0,1.8-0.3,3.4-0.9,4.9c-0.6,1.5-1.5,2.8-2.6,3.9
	c-1.1,1.1-2.4,2.1-3.9,2.7v0.1c2,0.6,3.9,1.7,5.4,3.1c1.5,1.4,2.7,3,3.4,4.8c0.8,1.9,1.2,3.9,1.2,6c0,3.1-0.7,5.8-2.1,8.3
	c-1.4,2.5-3.4,4.5-5.9,5.9c-2.6,1.4-5.6,2.1-9.1,2.1L492.5,60.7L492.5,60.7z M515.4,50.3c1.5,0,2.9-0.3,4-0.8
	c1.2-0.5,2.1-1.4,2.7-2.4c0.6-1.1,1-2.4,1-3.9c0-1.5-0.3-2.7-1-3.7c-0.6-1-1.6-1.8-2.7-2.3c-1.3-0.6-2.6-0.8-4-0.8h-9.1v14
	L515.4,50.3L515.4,50.3z M514.1,27.2c1.4,0,2.7-0.2,3.7-0.7c1-0.5,1.8-1.2,2.4-2.1c0.6-0.9,0.9-2.1,0.9-3.4c0-1.3-0.3-2.4-0.9-3.4
	c-0.6-0.9-1.4-1.7-2.5-2.1c-1.1-0.5-2.4-0.7-3.6-0.7h-7.9v12.4C506.3,27.2,514.1,27.2,514.1,27.2z M546.6,4.5v56.3h35.9V49.1h-22
	V4.5L546.6,4.5L546.6,4.5z M589.6,60.8V4.5h13.9v56.3L589.6,60.8L589.6,60.8z M15.3,60.7V16.1H0V4.5h44.3v11.6H29v44.7L15.3,60.7
	L15.3,60.7z">
 </path>
</svg>